<svg width="16" height="23" viewBox="0 0 16 23" fill="none" xmlns="http://www.w3.org/2000/svg">
<path fill-rule="evenodd" clip-rule="evenodd" d="M4.72786 22.9184V18.6634H11.0004V22.9184H15.7276V0H0V22.9184H4.72786ZM11.0004 2.1054H13.646V4.7804H11.0004V2.1054ZM13.646 5.99413H11.0004V8.66985H13.646V5.99413ZM11.0004 9.88358H13.646V12.5579H11.0004V9.88358ZM13.646 13.7716H11.0004V16.448H13.646V13.7716ZM6.5417 2.1054H9.18802V4.7804H6.5417V2.1054ZM9.18802 5.99413H6.5417V8.66985H9.18802V5.99413ZM6.5417 9.88358H9.18802V12.5579H6.5417V9.88358ZM9.18802 13.7716H6.5417V16.448H9.18802V13.7716ZM2.08298 2.1054H4.72858V4.7804H2.08298V2.1054ZM4.72858 5.99413H2.08298V8.66985H4.72858V5.99413ZM2.08298 9.88358H4.72858V12.5579H2.08298V9.88358ZM4.72858 13.7716H2.08298V16.448H4.72858V13.7716Z" fill="#58BEBF"/>
</svg>
