<svg width="45" height="45" viewBox="0 0 45 45" fill="none" xmlns="http://www.w3.org/2000/svg">
<circle cx="22.5" cy="22.5" r="22.5" fill="#58BEBF" fill-opacity="0.2"/>
<path fill-rule="evenodd" clip-rule="evenodd" d="M19.7279 33.9184V29.6634H26.0004V33.9184H30.7276V11H15V33.9184H19.7279ZM26.0004 13.1054H28.646V15.7804H26.0004V13.1054ZM28.646 16.9941H26.0004V19.6698H28.646V16.9941ZM26.0004 20.8836H28.646V23.5579H26.0004V20.8836ZM28.646 24.7716H26.0004V27.448H28.646V24.7716ZM21.5417 13.1054H24.188V15.7804H21.5417V13.1054ZM24.188 16.9941H21.5417V19.6698H24.188V16.9941ZM21.5417 20.8836H24.188V23.5579H21.5417V20.8836ZM24.188 24.7716H21.5417V27.448H24.188V24.7716ZM17.083 13.1054H19.7286V15.7804H17.083V13.1054ZM19.7286 16.9941H17.083V19.6698H19.7286V16.9941ZM17.083 20.8836H19.7286V23.5579H17.083V20.8836ZM19.7286 24.7716H17.083V27.448H19.7286V24.7716Z" fill="#58BEBF"/>
</svg>
